<?xml version="1.0" standalone="no"?>
<!DOCTYPE svg PUBLIC "-//W3C//DTD SVG 20010904//EN"
 "http://www.w3.org/TR/2001/REC-SVG-20010904/DTD/svg10.dtd">
<svg version="1.0" xmlns="http://www.w3.org/2000/svg"
 width="1024.000000pt" height="1024.000000pt" viewBox="0 0 1024.000000 1024.000000"
 preserveAspectRatio="xMidYMid meet">

<g transform="translate(0.000000,1024.000000) scale(0.100000,-0.100000)"
fill="#000000" stroke="none">
<path d="M0 5120 l0 -5120 5120 0 5120 0 0 5120 0 5120 -5120 0 -5120 0 0
-5120z m5268 3374 c209 -43 254 -77 800 -622 392 -389 464 -466 490 -518 50
-99 66 -168 66 -284 1 -122 -13 -186 -61 -290 -34 -71 -55 -95 -421 -462 -213
-214 -393 -388 -402 -388 -8 0 -30 9 -48 20 -43 27 -342 321 -342 337 0 17
262 292 456 478 110 105 173 173 185 200 21 45 24 110 8 152 -6 15 -171 189
-367 386 -376 378 -406 403 -502 414 -93 11 -116 -8 -517 -409 -317 -318 -363
-368 -373 -406 -12 -45 -6 -101 16 -142 7 -14 404 -412 884 -885 479 -473 877
-870 885 -882 8 -12 15 -31 15 -41 0 -23 -343 -362 -366 -362 -20 0 -520 489
-1320 1292 -609 610 -633 636 -667 708 -87 182 -83 392 10 575 33 63 83 117
497 532 316 316 481 474 524 501 147 94 370 133 550 96z m-1887 -1841 c31 -10
82 -34 112 -53 74 -44 867 -837 867 -866 0 -22 -338 -364 -360 -364 -8 0 -163
148 -344 329 -346 345 -377 370 -459 371 -21 0 -52 -7 -70 -16 -44 -23 -767
-738 -792 -783 -15 -27 -20 -55 -20 -116 0 -69 4 -86 27 -126 17 -28 134 -148
297 -303 149 -141 310 -299 358 -350 116 -123 151 -146 217 -146 40 0 62 6 97
29 24 16 314 299 644 630 442 442 606 601 623 601 34 0 362 -326 362 -360 0
-20 -147 -171 -688 -711 -667 -667 -689 -688 -762 -722 -93 -44 -156 -57 -269
-57 -109 0 -217 26 -314 77 -61 32 -109 74 -317 279 -442 435 -693 696 -729
757 -99 169 -141 426 -97 597 24 92 78 202 135 274 70 87 917 927 971 963 118
79 175 94 335 89 83 -3 137 -10 176 -23z m3771 16 c72 -15 182 -69 252 -123
108 -84 350 -313 651 -618 256 -258 307 -314 343 -380 118 -209 139 -417 67
-635 -51 -152 -81 -190 -439 -553 -526 -532 -622 -622 -708 -664 -194 -96
-428 -81 -608 39 -41 28 -206 185 -444 423 -336 337 -378 383 -373 404 7 28
365 370 382 366 6 -2 54 -50 106 -108 168 -184 584 -580 621 -591 23 -7 46 -6
76 2 37 10 89 59 420 391 207 209 387 396 399 416 48 79 42 183 -15 265 -20
29 -190 204 -377 388 -399 394 -436 419 -528 373 -18 -9 -183 -166 -367 -350
-260 -259 -341 -334 -360 -334 -19 0 -65 40 -188 163 -157 157 -163 165 -160
200 3 32 36 70 318 358 173 177 356 358 405 401 171 150 344 205 527 167z
m-1488 -2223 c726 -716 865 -859 903 -932 89 -169 84 -388 -14 -577 -33 -65
-82 -118 -482 -520 -436 -439 -511 -507 -618 -561 -116 -58 -337 -84 -482 -56
-75 14 -177 57 -246 104 -71 48 -871 829 -955 933 -130 161 -175 336 -135 528
32 153 38 160 484 608 223 224 411 407 418 407 20 0 373 -354 373 -374 0 -10
-146 -163 -329 -344 -261 -260 -331 -335 -341 -366 -14 -44 -8 -113 14 -154 8
-15 176 -188 373 -384 392 -391 407 -402 513 -402 106 1 102 -2 608 519 123
126 231 243 239 260 25 48 33 96 22 145 -9 42 -34 70 -363 400 -194 195 -470
472 -614 614 -144 142 -262 264 -262 271 0 22 350 375 372 375 13 0 196 -173
522 -494z"/>
</g>
</svg>
